<mxfile host="65bd71144e">
    <diagram name="Page-1" id="65L9s0X-_qAf-1EEDN0x">
        <mxGraphModel dx="458" dy="467" grid="1" gridSize="10" guides="1" tooltips="1" connect="1" arrows="1" fold="1" page="1" pageScale="1" pageWidth="850" pageHeight="1100" math="0" shadow="0">
            <root>
                <mxCell id="0"/>
                <mxCell id="1" parent="0"/>
                <mxCell id="GHHUwfC4cXGNXOGr5f7a-5" value="" style="endArrow=classic;html=1;rounded=0;" parent="1" edge="1">
                    <mxGeometry width="50" height="50" relative="1" as="geometry">
                        <mxPoint x="70" y="526" as="sourcePoint"/>
                        <mxPoint x="720" y="526" as="targetPoint"/>
                    </mxGeometry>
                </mxCell>
                <mxCell id="GHHUwfC4cXGNXOGr5f7a-6" value="Schedule&lt;br&gt;Order" style="text;html=1;strokeColor=none;fillColor=none;align=center;verticalAlign=middle;whiteSpace=wrap;rounded=0;" parent="1" vertex="1">
                    <mxGeometry x="730" y="506" width="60" height="30" as="geometry"/>
                </mxCell>
                <mxCell id="GHHUwfC4cXGNXOGr5f7a-25" style="edgeStyle=orthogonalEdgeStyle;rounded=0;orthogonalLoop=1;jettySize=auto;html=1;exitX=1;exitY=0.5;exitDx=0;exitDy=0;entryX=0;entryY=0.5;entryDx=0;entryDy=0;fontFamily=Courier New;endArrow=none;endFill=0;" parent="1" source="GHHUwfC4cXGNXOGr5f7a-7" target="GHHUwfC4cXGNXOGr5f7a-44" edge="1">
                    <mxGeometry relative="1" as="geometry">
                        <mxPoint x="180" y="165" as="targetPoint"/>
                    </mxGeometry>
                </mxCell>
                <mxCell id="GHHUwfC4cXGNXOGr5f7a-7" value="&lt;font face=&quot;Courier New&quot;&gt;t&lt;sub&gt;1&lt;/sub&gt;&lt;/font&gt;" style="text;html=1;strokeColor=none;fillColor=none;align=center;verticalAlign=middle;whiteSpace=wrap;rounded=0;" parent="1" vertex="1">
                    <mxGeometry x="70" y="150" width="30" height="30" as="geometry"/>
                </mxCell>
                <mxCell id="GHHUwfC4cXGNXOGr5f7a-26" style="edgeStyle=orthogonalEdgeStyle;rounded=0;orthogonalLoop=1;jettySize=auto;html=1;exitX=1;exitY=0.5;exitDx=0;exitDy=0;entryX=0;entryY=0.5;entryDx=0;entryDy=0;fontFamily=Courier New;endArrow=none;endFill=0;" parent="1" source="GHHUwfC4cXGNXOGr5f7a-8" target="GHHUwfC4cXGNXOGr5f7a-45" edge="1">
                    <mxGeometry relative="1" as="geometry">
                        <mxPoint x="180" y="213" as="targetPoint"/>
                    </mxGeometry>
                </mxCell>
                <mxCell id="GHHUwfC4cXGNXOGr5f7a-8" value="&lt;font face=&quot;Courier New&quot;&gt;soc&lt;sub&gt;1&lt;/sub&gt;&lt;/font&gt;" style="text;html=1;strokeColor=none;fillColor=none;align=center;verticalAlign=middle;whiteSpace=wrap;rounded=0;" parent="1" vertex="1">
                    <mxGeometry x="70" y="208" width="30" height="30" as="geometry"/>
                </mxCell>
                <mxCell id="GHHUwfC4cXGNXOGr5f7a-27" style="edgeStyle=orthogonalEdgeStyle;rounded=0;orthogonalLoop=1;jettySize=auto;html=1;entryX=0;entryY=0.5;entryDx=0;entryDy=0;fontFamily=Courier New;endArrow=none;endFill=0;" parent="1" source="GHHUwfC4cXGNXOGr5f7a-9" target="GHHUwfC4cXGNXOGr5f7a-46" edge="1">
                    <mxGeometry relative="1" as="geometry">
                        <mxPoint x="180" y="260" as="targetPoint"/>
                    </mxGeometry>
                </mxCell>
                <mxCell id="GHHUwfC4cXGNXOGr5f7a-9" value="&lt;font face=&quot;Courier New&quot;&gt;d&lt;sub&gt;1&lt;/sub&gt;&lt;/font&gt;" style="text;html=1;strokeColor=none;fillColor=none;align=center;verticalAlign=middle;whiteSpace=wrap;rounded=0;" parent="1" vertex="1">
                    <mxGeometry x="70" y="265" width="30" height="30" as="geometry"/>
                </mxCell>
                <mxCell id="GHHUwfC4cXGNXOGr5f7a-28" style="edgeStyle=orthogonalEdgeStyle;rounded=0;orthogonalLoop=1;jettySize=auto;html=1;entryX=0;entryY=0.5;entryDx=0;entryDy=0;fontFamily=Courier New;endArrow=none;endFill=0;" parent="1" source="GHHUwfC4cXGNXOGr5f7a-10" target="GHHUwfC4cXGNXOGr5f7a-47" edge="1">
                    <mxGeometry relative="1" as="geometry">
                        <mxPoint x="180" y="308" as="targetPoint"/>
                    </mxGeometry>
                </mxCell>
                <mxCell id="GHHUwfC4cXGNXOGr5f7a-10" value="&lt;font face=&quot;Courier New&quot;&gt;e&lt;sub&gt;1&lt;/sub&gt;&lt;/font&gt;" style="text;html=1;strokeColor=none;fillColor=none;align=center;verticalAlign=middle;whiteSpace=wrap;rounded=0;" parent="1" vertex="1">
                    <mxGeometry x="70" y="323" width="30" height="30" as="geometry"/>
                </mxCell>
                <mxCell id="GHHUwfC4cXGNXOGr5f7a-29" style="edgeStyle=orthogonalEdgeStyle;rounded=0;orthogonalLoop=1;jettySize=auto;html=1;entryX=0;entryY=0.5;entryDx=0;entryDy=0;fontFamily=Courier New;endArrow=none;endFill=0;" parent="1" source="GHHUwfC4cXGNXOGr5f7a-11" target="GHHUwfC4cXGNXOGr5f7a-48" edge="1">
                    <mxGeometry relative="1" as="geometry">
                        <mxPoint x="180" y="355" as="targetPoint"/>
                    </mxGeometry>
                </mxCell>
                <mxCell id="GHHUwfC4cXGNXOGr5f7a-11" value="&lt;font face=&quot;Courier New&quot;&gt;r&lt;sub&gt;1&lt;/sub&gt;&lt;/font&gt;" style="text;html=1;strokeColor=none;fillColor=none;align=center;verticalAlign=middle;whiteSpace=wrap;rounded=0;" parent="1" vertex="1">
                    <mxGeometry x="70" y="380" width="30" height="30" as="geometry"/>
                </mxCell>
                <mxCell id="GHHUwfC4cXGNXOGr5f7a-12" value="Variables" style="text;html=1;strokeColor=none;fillColor=none;align=center;verticalAlign=middle;whiteSpace=wrap;rounded=0;fontFamily=Courier New;" parent="1" vertex="1">
                    <mxGeometry x="55" y="100" width="60" height="30" as="geometry"/>
                </mxCell>
                <mxCell id="GHHUwfC4cXGNXOGr5f7a-56" value="" style="group" parent="1" vertex="1" connectable="0">
                    <mxGeometry x="210" y="130" width="180" height="360" as="geometry"/>
                </mxCell>
                <mxCell id="GHHUwfC4cXGNXOGr5f7a-50" value="A" style="rounded=0;whiteSpace=wrap;html=1;fontFamily=Courier New;" parent="GHHUwfC4cXGNXOGr5f7a-56" vertex="1">
                    <mxGeometry x="20" width="130" height="360" as="geometry"/>
                </mxCell>
                <mxCell id="GHHUwfC4cXGNXOGr5f7a-44" value="t&lt;sub&gt;1&lt;/sub&gt;" style="rounded=0;whiteSpace=wrap;html=1;fontFamily=Courier New;" parent="GHHUwfC4cXGNXOGr5f7a-56" vertex="1">
                    <mxGeometry y="20" width="50" height="30" as="geometry"/>
                </mxCell>
                <mxCell id="GHHUwfC4cXGNXOGr5f7a-45" value="soc&lt;sub&gt;1&lt;/sub&gt;" style="rounded=0;whiteSpace=wrap;html=1;fontFamily=Courier New;" parent="GHHUwfC4cXGNXOGr5f7a-56" vertex="1">
                    <mxGeometry y="78" width="50" height="30" as="geometry"/>
                </mxCell>
                <mxCell id="GHHUwfC4cXGNXOGr5f7a-46" value="d&lt;sub&gt;1&lt;/sub&gt;" style="rounded=0;whiteSpace=wrap;html=1;fontFamily=Courier New;" parent="GHHUwfC4cXGNXOGr5f7a-56" vertex="1">
                    <mxGeometry y="135" width="50" height="30" as="geometry"/>
                </mxCell>
                <mxCell id="GHHUwfC4cXGNXOGr5f7a-47" value="e&lt;sub&gt;1&lt;/sub&gt;" style="rounded=0;whiteSpace=wrap;html=1;fontFamily=Courier New;" parent="GHHUwfC4cXGNXOGr5f7a-56" vertex="1">
                    <mxGeometry y="193" width="50" height="30" as="geometry"/>
                </mxCell>
                <mxCell id="GHHUwfC4cXGNXOGr5f7a-48" value="r&lt;sub&gt;1&lt;/sub&gt;" style="rounded=0;whiteSpace=wrap;html=1;fontFamily=Courier New;" parent="GHHUwfC4cXGNXOGr5f7a-56" vertex="1">
                    <mxGeometry y="250" width="50" height="30" as="geometry"/>
                </mxCell>
                <mxCell id="GHHUwfC4cXGNXOGr5f7a-51" value="t&lt;sub&gt;2&lt;/sub&gt;" style="rounded=0;whiteSpace=wrap;html=1;fontFamily=Courier New;" parent="GHHUwfC4cXGNXOGr5f7a-56" vertex="1">
                    <mxGeometry x="130" y="20" width="50" height="30" as="geometry"/>
                </mxCell>
                <mxCell id="GHHUwfC4cXGNXOGr5f7a-52" value="soc&lt;sub&gt;2&lt;/sub&gt;" style="rounded=0;whiteSpace=wrap;html=1;fontFamily=Courier New;" parent="GHHUwfC4cXGNXOGr5f7a-56" vertex="1">
                    <mxGeometry x="130" y="78" width="50" height="30" as="geometry"/>
                </mxCell>
                <mxCell id="GHHUwfC4cXGNXOGr5f7a-53" value="d&lt;sub&gt;2&lt;/sub&gt;" style="rounded=0;whiteSpace=wrap;html=1;fontFamily=Courier New;" parent="GHHUwfC4cXGNXOGr5f7a-56" vertex="1">
                    <mxGeometry x="130" y="135" width="50" height="30" as="geometry"/>
                </mxCell>
                <mxCell id="GHHUwfC4cXGNXOGr5f7a-54" value="e&lt;sub&gt;2&lt;/sub&gt;" style="rounded=0;whiteSpace=wrap;html=1;fontFamily=Courier New;" parent="GHHUwfC4cXGNXOGr5f7a-56" vertex="1">
                    <mxGeometry x="130" y="193" width="50" height="30" as="geometry"/>
                </mxCell>
                <mxCell id="GHHUwfC4cXGNXOGr5f7a-55" value="r&lt;sub&gt;2&lt;/sub&gt;" style="rounded=0;whiteSpace=wrap;html=1;fontFamily=Courier New;" parent="GHHUwfC4cXGNXOGr5f7a-56" vertex="1">
                    <mxGeometry x="130" y="250" width="50" height="30" as="geometry"/>
                </mxCell>
                <mxCell id="2" value="temp&lt;sub&gt;1&lt;/sub&gt;" style="rounded=0;whiteSpace=wrap;html=1;fontFamily=Courier New;" vertex="1" parent="GHHUwfC4cXGNXOGr5f7a-56">
                    <mxGeometry y="310" width="50" height="30" as="geometry"/>
                </mxCell>
                <mxCell id="5" value="temp&lt;sub&gt;1&lt;/sub&gt;" style="rounded=0;whiteSpace=wrap;html=1;fontFamily=Courier New;" vertex="1" parent="GHHUwfC4cXGNXOGr5f7a-56">
                    <mxGeometry x="130" y="310" width="50" height="30" as="geometry"/>
                </mxCell>
                <mxCell id="GHHUwfC4cXGNXOGr5f7a-57" value="" style="group" parent="1" vertex="1" connectable="0">
                    <mxGeometry x="470" y="130" width="180" height="360" as="geometry"/>
                </mxCell>
                <mxCell id="GHHUwfC4cXGNXOGr5f7a-58" value="B" style="rounded=0;whiteSpace=wrap;html=1;fontFamily=Courier New;" parent="GHHUwfC4cXGNXOGr5f7a-57" vertex="1">
                    <mxGeometry x="20" width="130" height="360" as="geometry"/>
                </mxCell>
                <mxCell id="GHHUwfC4cXGNXOGr5f7a-59" value="t&lt;span style=&quot;font-size: 10px;&quot;&gt;&lt;sub&gt;2&lt;/sub&gt;&lt;/span&gt;" style="rounded=0;whiteSpace=wrap;html=1;fontFamily=Courier New;" parent="GHHUwfC4cXGNXOGr5f7a-57" vertex="1">
                    <mxGeometry y="20" width="50" height="30" as="geometry"/>
                </mxCell>
                <mxCell id="GHHUwfC4cXGNXOGr5f7a-60" value="soc&lt;sub&gt;2&lt;/sub&gt;" style="rounded=0;whiteSpace=wrap;html=1;fontFamily=Courier New;" parent="GHHUwfC4cXGNXOGr5f7a-57" vertex="1">
                    <mxGeometry y="78" width="50" height="30" as="geometry"/>
                </mxCell>
                <mxCell id="GHHUwfC4cXGNXOGr5f7a-61" value="d&lt;sub&gt;2&lt;/sub&gt;" style="rounded=0;whiteSpace=wrap;html=1;fontFamily=Courier New;" parent="GHHUwfC4cXGNXOGr5f7a-57" vertex="1">
                    <mxGeometry y="135" width="50" height="30" as="geometry"/>
                </mxCell>
                <mxCell id="GHHUwfC4cXGNXOGr5f7a-62" value="e&lt;sub&gt;2&lt;/sub&gt;" style="rounded=0;whiteSpace=wrap;html=1;fontFamily=Courier New;" parent="GHHUwfC4cXGNXOGr5f7a-57" vertex="1">
                    <mxGeometry y="193" width="50" height="30" as="geometry"/>
                </mxCell>
                <mxCell id="GHHUwfC4cXGNXOGr5f7a-63" value="r&lt;sub&gt;2&lt;/sub&gt;" style="rounded=0;whiteSpace=wrap;html=1;fontFamily=Courier New;" parent="GHHUwfC4cXGNXOGr5f7a-57" vertex="1">
                    <mxGeometry y="250" width="50" height="30" as="geometry"/>
                </mxCell>
                <mxCell id="GHHUwfC4cXGNXOGr5f7a-64" value="t&lt;sub&gt;3&lt;/sub&gt;" style="rounded=0;whiteSpace=wrap;html=1;fontFamily=Courier New;" parent="GHHUwfC4cXGNXOGr5f7a-57" vertex="1">
                    <mxGeometry x="130" y="20" width="50" height="30" as="geometry"/>
                </mxCell>
                <mxCell id="GHHUwfC4cXGNXOGr5f7a-65" value="soc&lt;sub&gt;3&lt;/sub&gt;" style="rounded=0;whiteSpace=wrap;html=1;fontFamily=Courier New;" parent="GHHUwfC4cXGNXOGr5f7a-57" vertex="1">
                    <mxGeometry x="130" y="78" width="50" height="30" as="geometry"/>
                </mxCell>
                <mxCell id="GHHUwfC4cXGNXOGr5f7a-66" value="d&lt;sub&gt;3&lt;/sub&gt;" style="rounded=0;whiteSpace=wrap;html=1;fontFamily=Courier New;" parent="GHHUwfC4cXGNXOGr5f7a-57" vertex="1">
                    <mxGeometry x="130" y="135" width="50" height="30" as="geometry"/>
                </mxCell>
                <mxCell id="GHHUwfC4cXGNXOGr5f7a-67" value="e&lt;sub&gt;3&lt;/sub&gt;" style="rounded=0;whiteSpace=wrap;html=1;fontFamily=Courier New;" parent="GHHUwfC4cXGNXOGr5f7a-57" vertex="1">
                    <mxGeometry x="130" y="193" width="50" height="30" as="geometry"/>
                </mxCell>
                <mxCell id="GHHUwfC4cXGNXOGr5f7a-68" value="r&lt;sub&gt;3&lt;/sub&gt;" style="rounded=0;whiteSpace=wrap;html=1;fontFamily=Courier New;" parent="GHHUwfC4cXGNXOGr5f7a-57" vertex="1">
                    <mxGeometry x="130" y="250" width="50" height="30" as="geometry"/>
                </mxCell>
                <mxCell id="6" value="temp&lt;sub&gt;1&lt;/sub&gt;" style="rounded=0;whiteSpace=wrap;html=1;fontFamily=Courier New;" vertex="1" parent="GHHUwfC4cXGNXOGr5f7a-57">
                    <mxGeometry y="310" width="50" height="30" as="geometry"/>
                </mxCell>
                <mxCell id="7" value="temp&lt;sub&gt;1&lt;/sub&gt;" style="rounded=0;whiteSpace=wrap;html=1;fontFamily=Courier New;" vertex="1" parent="GHHUwfC4cXGNXOGr5f7a-57">
                    <mxGeometry x="130" y="310" width="50" height="30" as="geometry"/>
                </mxCell>
                <mxCell id="GHHUwfC4cXGNXOGr5f7a-69" style="edgeStyle=orthogonalEdgeStyle;rounded=0;orthogonalLoop=1;jettySize=auto;html=1;exitX=1;exitY=0.5;exitDx=0;exitDy=0;entryX=0;entryY=0.5;entryDx=0;entryDy=0;fontFamily=Courier New;endArrow=none;endFill=0;" parent="1" source="GHHUwfC4cXGNXOGr5f7a-51" target="GHHUwfC4cXGNXOGr5f7a-59" edge="1">
                    <mxGeometry relative="1" as="geometry">
                        <mxPoint x="110" y="175" as="sourcePoint"/>
                        <mxPoint x="220" y="175" as="targetPoint"/>
                    </mxGeometry>
                </mxCell>
                <mxCell id="GHHUwfC4cXGNXOGr5f7a-70" style="edgeStyle=orthogonalEdgeStyle;rounded=0;orthogonalLoop=1;jettySize=auto;html=1;exitX=1;exitY=0.5;exitDx=0;exitDy=0;entryX=0;entryY=0.5;entryDx=0;entryDy=0;fontFamily=Courier New;endArrow=none;endFill=0;" parent="1" source="GHHUwfC4cXGNXOGr5f7a-52" target="GHHUwfC4cXGNXOGr5f7a-60" edge="1">
                    <mxGeometry relative="1" as="geometry">
                        <mxPoint x="400" y="175" as="sourcePoint"/>
                        <mxPoint x="480" y="175" as="targetPoint"/>
                    </mxGeometry>
                </mxCell>
                <mxCell id="GHHUwfC4cXGNXOGr5f7a-71" style="edgeStyle=orthogonalEdgeStyle;rounded=0;orthogonalLoop=1;jettySize=auto;html=1;entryX=0;entryY=0.5;entryDx=0;entryDy=0;fontFamily=Courier New;endArrow=none;endFill=0;" parent="1" source="GHHUwfC4cXGNXOGr5f7a-53" target="GHHUwfC4cXGNXOGr5f7a-61" edge="1">
                    <mxGeometry relative="1" as="geometry"/>
                </mxCell>
                <mxCell id="GHHUwfC4cXGNXOGr5f7a-72" style="edgeStyle=orthogonalEdgeStyle;rounded=0;orthogonalLoop=1;jettySize=auto;html=1;entryX=0;entryY=0.5;entryDx=0;entryDy=0;fontFamily=Courier New;endArrow=none;endFill=0;" parent="1" source="GHHUwfC4cXGNXOGr5f7a-54" target="GHHUwfC4cXGNXOGr5f7a-62" edge="1">
                    <mxGeometry relative="1" as="geometry"/>
                </mxCell>
                <mxCell id="GHHUwfC4cXGNXOGr5f7a-73" style="edgeStyle=orthogonalEdgeStyle;rounded=0;orthogonalLoop=1;jettySize=auto;html=1;entryX=0;entryY=0.5;entryDx=0;entryDy=0;fontFamily=Courier New;endArrow=none;endFill=0;" parent="1" source="GHHUwfC4cXGNXOGr5f7a-55" target="GHHUwfC4cXGNXOGr5f7a-63" edge="1">
                    <mxGeometry relative="1" as="geometry"/>
                </mxCell>
                <mxCell id="GHHUwfC4cXGNXOGr5f7a-74" value="&lt;font face=&quot;Courier New&quot;&gt;t&lt;sub&gt;3&lt;/sub&gt;&lt;/font&gt;" style="text;html=1;strokeColor=none;fillColor=none;align=center;verticalAlign=middle;whiteSpace=wrap;rounded=0;" parent="1" vertex="1">
                    <mxGeometry x="730" y="150" width="30" height="30" as="geometry"/>
                </mxCell>
                <mxCell id="GHHUwfC4cXGNXOGr5f7a-75" value="&lt;font face=&quot;Courier New&quot;&gt;soc&lt;sub&gt;3&lt;/sub&gt;&lt;/font&gt;" style="text;html=1;strokeColor=none;fillColor=none;align=center;verticalAlign=middle;whiteSpace=wrap;rounded=0;" parent="1" vertex="1">
                    <mxGeometry x="730" y="208" width="30" height="30" as="geometry"/>
                </mxCell>
                <mxCell id="GHHUwfC4cXGNXOGr5f7a-76" value="&lt;font face=&quot;Courier New&quot;&gt;d&lt;sub&gt;3&lt;/sub&gt;&lt;/font&gt;" style="text;html=1;strokeColor=none;fillColor=none;align=center;verticalAlign=middle;whiteSpace=wrap;rounded=0;" parent="1" vertex="1">
                    <mxGeometry x="730" y="265" width="30" height="30" as="geometry"/>
                </mxCell>
                <mxCell id="GHHUwfC4cXGNXOGr5f7a-77" value="&lt;font face=&quot;Courier New&quot;&gt;e&lt;sub&gt;3&lt;/sub&gt;&lt;/font&gt;" style="text;html=1;strokeColor=none;fillColor=none;align=center;verticalAlign=middle;whiteSpace=wrap;rounded=0;" parent="1" vertex="1">
                    <mxGeometry x="730" y="323" width="30" height="30" as="geometry"/>
                </mxCell>
                <mxCell id="GHHUwfC4cXGNXOGr5f7a-78" value="&lt;font face=&quot;Courier New&quot;&gt;r&lt;sub&gt;3&lt;/sub&gt;&lt;/font&gt;" style="text;html=1;strokeColor=none;fillColor=none;align=center;verticalAlign=middle;whiteSpace=wrap;rounded=0;" parent="1" vertex="1">
                    <mxGeometry x="730" y="380" width="30" height="30" as="geometry"/>
                </mxCell>
                <mxCell id="GHHUwfC4cXGNXOGr5f7a-79" style="edgeStyle=orthogonalEdgeStyle;rounded=0;orthogonalLoop=1;jettySize=auto;html=1;entryX=0;entryY=0.5;entryDx=0;entryDy=0;fontFamily=Courier New;endArrow=none;endFill=0;" parent="1" source="GHHUwfC4cXGNXOGr5f7a-64" target="GHHUwfC4cXGNXOGr5f7a-74" edge="1">
                    <mxGeometry relative="1" as="geometry"/>
                </mxCell>
                <mxCell id="GHHUwfC4cXGNXOGr5f7a-80" style="edgeStyle=orthogonalEdgeStyle;rounded=0;orthogonalLoop=1;jettySize=auto;html=1;entryX=0;entryY=0.5;entryDx=0;entryDy=0;fontFamily=Courier New;endArrow=none;endFill=0;" parent="1" source="GHHUwfC4cXGNXOGr5f7a-65" target="GHHUwfC4cXGNXOGr5f7a-75" edge="1">
                    <mxGeometry relative="1" as="geometry"/>
                </mxCell>
                <mxCell id="GHHUwfC4cXGNXOGr5f7a-81" style="edgeStyle=orthogonalEdgeStyle;rounded=0;orthogonalLoop=1;jettySize=auto;html=1;entryX=0;entryY=0.5;entryDx=0;entryDy=0;fontFamily=Courier New;endArrow=none;endFill=0;" parent="1" source="GHHUwfC4cXGNXOGr5f7a-66" target="GHHUwfC4cXGNXOGr5f7a-76" edge="1">
                    <mxGeometry relative="1" as="geometry"/>
                </mxCell>
                <mxCell id="GHHUwfC4cXGNXOGr5f7a-82" style="edgeStyle=orthogonalEdgeStyle;rounded=0;orthogonalLoop=1;jettySize=auto;html=1;entryX=0;entryY=0.5;entryDx=0;entryDy=0;fontFamily=Courier New;endArrow=none;endFill=0;" parent="1" source="GHHUwfC4cXGNXOGr5f7a-67" target="GHHUwfC4cXGNXOGr5f7a-77" edge="1">
                    <mxGeometry relative="1" as="geometry"/>
                </mxCell>
                <mxCell id="GHHUwfC4cXGNXOGr5f7a-83" style="edgeStyle=orthogonalEdgeStyle;rounded=0;orthogonalLoop=1;jettySize=auto;html=1;entryX=0;entryY=0.5;entryDx=0;entryDy=0;fontFamily=Courier New;endArrow=none;endFill=0;" parent="1" source="GHHUwfC4cXGNXOGr5f7a-68" target="GHHUwfC4cXGNXOGr5f7a-78" edge="1">
                    <mxGeometry relative="1" as="geometry"/>
                </mxCell>
                <mxCell id="JNxAYAF8ZLGorr7LrzFy-1" value="input&lt;br&gt;Variables" style="text;html=1;strokeColor=none;fillColor=none;align=center;verticalAlign=middle;whiteSpace=wrap;rounded=0;" parent="1" vertex="1">
                    <mxGeometry x="200" y="85" width="60" height="30" as="geometry"/>
                </mxCell>
                <mxCell id="JNxAYAF8ZLGorr7LrzFy-2" value="input&lt;br&gt;Variables" style="text;html=1;strokeColor=none;fillColor=none;align=center;verticalAlign=middle;whiteSpace=wrap;rounded=0;" parent="1" vertex="1">
                    <mxGeometry x="470" y="85" width="60" height="30" as="geometry"/>
                </mxCell>
                <mxCell id="JNxAYAF8ZLGorr7LrzFy-3" value="output&lt;br&gt;Variables" style="text;html=1;strokeColor=none;fillColor=none;align=center;verticalAlign=middle;whiteSpace=wrap;rounded=0;" parent="1" vertex="1">
                    <mxGeometry x="330" y="85" width="60" height="30" as="geometry"/>
                </mxCell>
                <mxCell id="JNxAYAF8ZLGorr7LrzFy-4" value="output&lt;br&gt;Variables" style="text;html=1;strokeColor=none;fillColor=none;align=center;verticalAlign=middle;whiteSpace=wrap;rounded=0;" parent="1" vertex="1">
                    <mxGeometry x="600" y="85" width="60" height="30" as="geometry"/>
                </mxCell>
                <mxCell id="JNxAYAF8ZLGorr7LrzFy-5" value="" style="shape=curlyBracket;whiteSpace=wrap;html=1;rounded=1;flipH=1;labelPosition=right;verticalLabelPosition=middle;align=left;verticalAlign=middle;rotation=-90;" parent="1" vertex="1">
                    <mxGeometry x="285" width="20" height="130" as="geometry"/>
                </mxCell>
                <mxCell id="JNxAYAF8ZLGorr7LrzFy-6" value="Pacti Contract" style="text;html=1;strokeColor=none;fillColor=none;align=center;verticalAlign=middle;whiteSpace=wrap;rounded=0;" parent="1" vertex="1">
                    <mxGeometry x="255" y="25" width="90" height="30" as="geometry"/>
                </mxCell>
                <mxCell id="JNxAYAF8ZLGorr7LrzFy-7" value="Pacti Contract" style="text;html=1;strokeColor=none;fillColor=none;align=center;verticalAlign=middle;whiteSpace=wrap;rounded=0;" parent="1" vertex="1">
                    <mxGeometry x="520" y="25" width="90" height="30" as="geometry"/>
                </mxCell>
                <mxCell id="JNxAYAF8ZLGorr7LrzFy-8" value="" style="shape=curlyBracket;whiteSpace=wrap;html=1;rounded=1;flipH=1;labelPosition=right;verticalLabelPosition=middle;align=left;verticalAlign=middle;rotation=-90;" parent="1" vertex="1">
                    <mxGeometry x="550" width="20" height="130" as="geometry"/>
                </mxCell>
                <mxCell id="4" style="edgeStyle=none;html=1;entryX=0;entryY=0.5;entryDx=0;entryDy=0;endArrow=none;endFill=0;" edge="1" parent="1" source="3" target="2">
                    <mxGeometry relative="1" as="geometry"/>
                </mxCell>
                <mxCell id="3" value="&lt;span style=&quot;font-family: &amp;quot;Courier New&amp;quot;;&quot;&gt;temp&lt;/span&gt;&lt;sub style=&quot;font-family: &amp;quot;Courier New&amp;quot;;&quot;&gt;1&lt;/sub&gt;" style="text;html=1;strokeColor=none;fillColor=none;align=center;verticalAlign=middle;whiteSpace=wrap;rounded=0;" vertex="1" parent="1">
                    <mxGeometry x="60" y="440" width="50" height="30" as="geometry"/>
                </mxCell>
                <mxCell id="8" value="&lt;span style=&quot;font-family: &amp;quot;Courier New&amp;quot;;&quot;&gt;temp&lt;/span&gt;&lt;sub style=&quot;font-family: &amp;quot;Courier New&amp;quot;;&quot;&gt;1&lt;/sub&gt;" style="text;html=1;strokeColor=none;fillColor=none;align=center;verticalAlign=middle;whiteSpace=wrap;rounded=0;" vertex="1" parent="1">
                    <mxGeometry x="720" y="440" width="50" height="30" as="geometry"/>
                </mxCell>
                <mxCell id="10" style="edgeStyle=none;html=1;endArrow=none;endFill=0;" edge="1" parent="1" source="7" target="8">
                    <mxGeometry relative="1" as="geometry"/>
                </mxCell>
                <mxCell id="11" style="edgeStyle=none;html=1;entryX=0;entryY=0.5;entryDx=0;entryDy=0;endArrow=none;endFill=0;" edge="1" parent="1" source="5" target="6">
                    <mxGeometry relative="1" as="geometry"/>
                </mxCell>
            </root>
        </mxGraphModel>
    </diagram>
</mxfile>